<svg width="13" height="13" viewBox="0 0 13 13" fill="none" xmlns="http://www.w3.org/2000/svg">
<path d="M12.25 0.683594C12.25 0.492188 12.168 0.328125 12.0312 0.191406C11.8945 0.0820312 11.7305 0 11.5664 0H0.683594C0.464844 0 0.300781 0.0820312 0.191406 0.191406C0.0546875 0.328125 0 0.492188 0 0.683594V11.5664C0 11.7578 0.0546875 11.9219 0.191406 12.0586C0.300781 12.1953 0.464844 12.25 0.683594 12.25H6.53516V7.49219H4.94922V5.66016H6.53516V4.29297C6.53516 3.52734 6.75391 2.92578 7.19141 2.48828C7.62891 2.07812 8.20312 1.85938 8.91406 1.85938C9.46094 1.85938 9.95312 1.88672 10.3359 1.91406V3.58203H9.35156C8.99609 3.58203 8.75 3.66406 8.61328 3.82812C8.50391 3.96484 8.44922 4.18359 8.44922 4.48438V5.66016H10.2812L10.0352 7.49219H8.44922V12.25H11.5664C11.7578 12.25 11.9219 12.1953 12.0586 12.0586C12.168 11.9219 12.25 11.7578 12.25 11.5664V0.683594Z" fill="white"/>
</svg>
