<svg width="14" height="14" viewBox="0 0 14 14" fill="none" xmlns="http://www.w3.org/2000/svg">
<path d="M4.53906 10.6367C4.53906 10.6367 4.51172 10.6094 4.48438 10.582C4.45703 10.582 4.42969 10.5547 4.375 10.5547C4.26562 10.5547 4.23828 10.6094 4.23828 10.6641C4.23828 10.7461 4.26562 10.7734 4.375 10.7734C4.48438 10.7734 4.53906 10.7188 4.53906 10.6367ZM3.69141 10.5273C3.69141 10.4727 3.74609 10.4453 3.85547 10.4727C3.9375 10.5 3.96484 10.5273 3.96484 10.582C3.96484 10.6367 3.9375 10.6641 3.91016 10.6641C3.85547 10.6914 3.82812 10.6914 3.80078 10.6641C3.74609 10.6641 3.71875 10.6367 3.69141 10.6094C3.66406 10.582 3.66406 10.5547 3.69141 10.5273ZM4.89453 10.4727C4.97656 10.4727 5.03125 10.5 5.03125 10.5547C5.03125 10.6094 5.00391 10.6641 4.92188 10.6914C4.86719 10.6914 4.83984 10.6914 4.8125 10.6914C4.78516 10.6914 4.75781 10.6367 4.75781 10.582C4.75781 10.5273 4.78516 10.5 4.89453 10.4727ZM6.69922 0C7.92969 0 9.07812 0.300781 10.1445 0.875C11.1836 1.47656 12.0312 2.26953 12.6328 3.25391C13.2344 4.29297 13.5625 5.44141 13.5625 6.67188C13.5625 8.20312 13.125 9.54297 12.2773 10.7461C11.4297 11.9492 10.3359 12.7695 8.96875 13.207C8.80469 13.2617 8.69531 13.2344 8.61328 13.1523C8.53125 13.0977 8.50391 12.9883 8.50391 12.8789V10.582C8.50391 10.0078 8.33984 9.59766 8.03906 9.32422C8.69531 9.26953 9.21484 9.16016 9.54297 9.05078C10.0352 8.88672 10.4453 8.61328 10.7188 8.23047C11.0195 7.76562 11.1836 7.10938 11.1836 6.28906C11.1836 5.96094 11.1016 5.66016 10.9922 5.38672C10.8828 5.22266 10.7188 4.97656 10.4727 4.70312C10.5273 4.53906 10.582 4.32031 10.6094 4.04688C10.6094 3.66406 10.5547 3.25391 10.418 2.84375C10.2266 2.78906 9.98047 2.84375 9.65234 2.95312C9.43359 3.0625 9.16016 3.17188 8.88672 3.33594L8.53125 3.58203C7.95703 3.41797 7.38281 3.33594 6.78125 3.33594C6.17969 3.33594 5.63281 3.41797 5.08594 3.58203L4.73047 3.33594C4.42969 3.17188 4.15625 3.0625 3.9375 2.95312C3.60938 2.84375 3.36328 2.78906 3.19922 2.84375C3.03516 3.25391 2.95312 3.66406 3.00781 4.04688C3.00781 4.32031 3.03516 4.51172 3.11719 4.67578C2.89844 4.94922 2.73438 5.22266 2.625 5.44141C2.51562 5.66016 2.48828 5.96094 2.48828 6.28906C2.48828 7.10938 2.625 7.76562 2.92578 8.20312C3.17188 8.58594 3.55469 8.88672 4.07422 9.05078C4.40234 9.16016 4.89453 9.26953 5.55078 9.32422C5.30469 9.54297 5.16797 9.87109 5.11328 10.2539C4.78516 10.418 4.48438 10.4727 4.21094 10.418C3.71875 10.3906 3.36328 10.1445 3.11719 9.67969C3.00781 9.48828 2.84375 9.32422 2.67969 9.1875C2.54297 9.13281 2.40625 9.05078 2.26953 8.99609L2.07812 8.96875C1.85938 8.96875 1.75 9.02344 1.75 9.07812C1.75 9.13281 1.77734 9.21484 1.88672 9.26953L2.02344 9.37891C2.13281 9.46094 2.26953 9.57031 2.40625 9.73438C2.51562 9.87109 2.59766 10.0078 2.67969 10.1719L2.78906 10.3906C2.87109 10.6641 3.03516 10.8828 3.30859 11.0195C3.52734 11.1562 3.77344 11.2383 4.10156 11.2656C4.32031 11.293 4.53906 11.293 4.78516 11.2383L5.08594 11.2109L5.11328 12.8789C5.11328 12.9883 5.05859 13.0977 4.97656 13.1523C4.89453 13.2344 4.78516 13.2617 4.64844 13.207C3.25391 12.7695 2.13281 11.9492 1.28516 10.7461C0.410156 9.54297 0 8.20312 0 6.67188C0 5.44141 0.273438 4.32031 0.875 3.28125C1.44922 2.26953 2.24219 1.47656 3.28125 0.875C4.29297 0.300781 5.44141 0 6.69922 0ZM2.65234 9.43359C2.67969 9.40625 2.73438 9.40625 2.78906 9.46094C2.84375 9.51562 2.84375 9.57031 2.81641 9.59766C2.76172 9.65234 2.73438 9.625 2.67969 9.57031C2.625 9.51562 2.59766 9.48828 2.65234 9.43359ZM2.35156 9.21484C2.37891 9.1875 2.43359 9.1875 2.48828 9.21484C2.54297 9.24219 2.54297 9.26953 2.54297 9.32422C2.51562 9.37891 2.46094 9.37891 2.40625 9.32422C2.35156 9.29688 2.32422 9.26953 2.35156 9.21484ZM3.25391 10.1719C3.25391 10.1719 3.28125 10.1719 3.33594 10.1719C3.36328 10.1719 3.39062 10.1992 3.41797 10.2266C3.44531 10.2539 3.47266 10.2812 3.47266 10.3086C3.47266 10.3633 3.47266 10.3906 3.47266 10.3906C3.41797 10.4453 3.33594 10.4453 3.28125 10.3633C3.22656 10.3359 3.22656 10.3086 3.22656 10.2539C3.22656 10.2266 3.22656 10.1992 3.25391 10.1719ZM2.92578 9.78906C2.95312 9.78906 2.98047 9.78906 3.00781 9.78906C3.03516 9.78906 3.0625 9.81641 3.08984 9.84375C3.14453 9.92578 3.14453 9.98047 3.08984 10.0078C3.0625 10.0352 3.03516 10.0352 3.00781 10.0078C2.98047 10.0078 2.95312 9.98047 2.92578 9.95312C2.87109 9.87109 2.87109 9.81641 2.92578 9.78906Z" fill="white"/>
</svg>
