<svg width="14" height="12" viewBox="0 0 14 12" fill="none" xmlns="http://www.w3.org/2000/svg">
<path d="M12.5508 2.84375C13.0977 2.43359 13.5898 1.94141 14 1.33984C13.4531 1.58594 12.9062 1.75 12.3594 1.80469C12.9609 1.42188 13.3984 0.902344 13.6172 0.21875C13.043 0.546875 12.4414 0.792969 11.7852 0.902344C11.5117 0.628906 11.1836 0.410156 10.8281 0.246094C10.4727 0.0820312 10.0898 0 9.67969 0C9.16016 0 8.69531 0.136719 8.25781 0.382812C7.82031 0.65625 7.46484 1.01172 7.21875 1.44922C6.94531 1.88672 6.83594 2.37891 6.83594 2.87109C6.83594 3.08984 6.83594 3.30859 6.89062 3.52734C5.71484 3.47266 4.62109 3.19922 3.58203 2.65234C2.54297 2.13281 1.69531 1.42188 0.984375 0.519531C0.710938 0.984375 0.574219 1.47656 0.574219 1.96875C0.574219 2.46094 0.683594 2.92578 0.929688 3.33594C1.14844 3.77344 1.47656 4.10156 1.85938 4.375C1.39453 4.375 0.957031 4.23828 0.574219 3.99219V4.04688C0.574219 4.73047 0.792969 5.33203 1.23047 5.85156C1.66797 6.39844 2.21484 6.72656 2.87109 6.86328C2.59766 6.91797 2.35156 6.94531 2.10547 6.94531C1.94141 6.94531 1.75 6.94531 1.58594 6.91797C1.75 7.49219 2.07812 7.95703 2.57031 8.33984C3.0625 8.72266 3.60938 8.88672 4.26562 8.88672C3.19922 9.70703 1.99609 10.1172 0.683594 10.1172C0.410156 10.1172 0.191406 10.1172 0 10.0898C1.3125 10.9648 2.78906 11.375 4.40234 11.375C6.07031 11.375 7.54688 10.9648 8.85938 10.0898C10.0352 9.32422 10.9648 8.3125 11.6211 7C12.25 5.79688 12.5781 4.51172 12.5781 3.19922C12.5781 3.03516 12.5508 2.92578 12.5508 2.84375Z" fill="white"/>
</svg>
